<svg width="44" height="146" viewBox="0 0 44 146" fill="none" xmlns="http://www.w3.org/2000/svg">
<path opacity="0.3" d="M40 23H7V94H40V23Z" fill="#B982FF"/>
<path d="M22.3643 0C19.8976 0.155843 17.4951 1.53954 16.1145 3.30576C14.6217 5.21366 14.215 7.60798 14.3167 9.88424C14.3916 11.5418 14.4665 13.2325 14.8731 14.8571C15.1781 16.0755 15.6437 17.2655 16.35 18.3517C16.7085 18.9043 17.1366 19.4804 17.6663 19.9196C17.9392 20.1463 17.8696 20.014 17.9392 20.2691C18.0409 20.6185 17.9659 21.2419 17.8964 21.6905C17.7787 22.4603 17.5004 23.2065 17.0135 23.8582C15.3547 26.073 12.0693 25.9266 9.45272 26.4556C7.49966 26.8523 5.15598 27.5229 4.33195 29.3127C3.70055 30.6869 3.89317 32.2832 3.90923 33.7377C3.93063 35.825 3.94669 37.9124 3.93063 39.995C3.91458 42.4082 3.87177 44.8262 3.7273 47.2347C3.62028 49.0528 3.53467 50.9466 3.01563 52.7175C2.86581 53.2323 2.55546 53.7187 2.36283 54.2476C2.05248 55.1071 1.87055 55.9997 1.71538 56.8875C1.27661 59.381 1.06792 61.9123 0.907393 64.4294C0.746867 66.9465 0.661258 69.388 0.661258 71.8721C0.661258 74.3561 0.76292 77.0574 0.415114 79.6406C0.372307 79.9428 0.329498 80.2498 0.270639 80.552C0.254586 80.6229 0.238541 80.6937 0.227839 80.7693C0.201085 80.9251 0.281342 80.6323 0.238535 80.7551C-0.125324 81.8791 -0.152076 83.0408 0.725465 83.9995C1.60301 84.9582 2.69459 85.8224 3.738 86.6677C4.17142 87.0172 4.57274 87.428 5.10782 87.6547C5.83019 87.9664 7.01273 88.2875 7.57457 87.5508C7.85282 87.1825 7.64948 86.7669 7.4408 86.4127C7.05554 85.7515 6.53115 85.166 5.95326 84.6276C5.07572 83.8059 3.62028 82.8897 3.93063 81.6004C3.97879 81.4115 4.29449 80.9487 4.27309 80.8354C4.28379 80.8921 3.16546 80.9062 3.14406 80.944C3.14406 80.9346 3.14405 81.0054 3.15475 80.9629C3.15475 80.9582 3.18686 81.0668 3.19756 81.114C3.29388 81.4824 3.30993 81.8696 3.32598 82.2474C3.34739 82.8141 3.34204 83.3856 3.32064 83.9523C3.29388 84.6323 4.86168 84.4151 4.88844 83.8342C4.91519 83.2533 4.91519 82.663 4.88844 82.0774C4.86703 81.5391 4.97405 80.4104 4.25704 80.1648C2.99958 79.735 2.32537 81.3265 2.30397 82.1246C2.27721 83.3714 3.42765 84.2167 4.32659 85.0384C4.91519 85.5768 5.48238 86.153 5.88904 86.8094C5.96396 86.9322 6.02817 87.2533 6.12984 87.3478V87.3761C6.09773 87.5036 6.19939 87.4564 6.42413 87.225C5.85159 87.565 6.788 86.9511 6.7987 87.0455C6.7987 87.0455 6.70773 87.0314 6.62747 87.0077C6.17264 86.8613 5.92115 86.7055 5.53054 86.3891C4.50852 85.5674 3.48651 84.7362 2.55546 83.8342C2.02572 83.3194 1.59766 82.8 1.5388 82.0774C1.50669 81.6902 1.63511 81.0999 1.71002 80.8543C2.1809 79.3478 2.1809 77.6524 2.22906 76.1034C2.30397 73.6052 2.18625 71.107 2.26116 68.6088C2.33607 65.9783 2.4859 63.3479 2.74274 60.7269C2.95143 58.6254 3.15476 56.4483 3.81826 54.4129C3.99484 53.8698 4.31054 53.3787 4.49247 52.8356C4.72791 52.1366 4.84563 51.4094 4.94729 50.6868C5.24694 48.5428 5.33791 46.3752 5.40747 44.217C5.53589 40.1698 5.46633 36.1226 5.44493 32.0754C5.43958 30.6728 5.45562 29.0577 6.94316 28.2171C9.36175 26.8523 12.5402 27.2159 15.1514 26.3186C17.2329 25.6055 18.7739 24.1321 19.309 22.21C19.4695 21.6197 19.5337 21.0105 19.5123 20.4013C19.4909 19.8299 19.4749 19.7024 19.0147 19.2773C17.1098 17.5158 16.35 14.9846 16.0664 12.6186C16.0022 12.0708 15.9861 11.5277 15.9647 10.9799C15.9166 9.71423 15.7988 8.49109 15.9915 7.22546C16.2751 5.40256 17.0777 3.58439 18.6883 2.35654C19.2662 1.91734 19.7906 1.63871 20.4541 1.3837C20.5932 1.32703 20.7377 1.2798 20.8822 1.23258C20.7163 1.28453 21.0641 1.18063 21.1337 1.16174C21.353 1.10507 21.5724 1.05784 21.7918 1.01062C21.9737 0.972839 21.9684 0.982284 21.8667 0.996452C21.9256 0.991729 21.9791 0.982284 22.038 0.972839C22.0915 0.968117 22.145 0.958672 22.1931 0.958672C23.0439 0.906724 23.4078 -0.0566703 22.3483 0.00944504L22.3643 0Z" fill="#1A1B23"/>
<path d="M10.3102 43.5163C10.2811 45.3584 10.1471 47.2051 9.91404 49.0376C9.74506 50.3677 9.52947 51.7073 9.12743 53.0039C8.78948 54.0947 8.04948 54.999 7.64161 56.0611C7.08807 57.5108 6.93659 59.0562 6.67438 60.5537C6.32478 62.5871 5.85864 64.6014 5.06038 66.5486C4.26212 68.4959 3.12008 70.3762 3.00938 72.5244C2.93946 73.8736 3.25993 75.2132 3.99409 76.4285C4.80983 77.7825 5.21187 79.1508 5.38668 80.6627C5.57896 82.3421 5.64888 84.2606 4.76322 85.8251C4.58842 86.1361 6.21407 86.0117 6.44131 85.6146C7.18713 84.2893 7.22791 82.6961 7.15799 81.2608C7.08807 79.8254 6.87248 78.2609 6.20241 76.9069C5.95186 76.4094 5.59644 75.9548 5.35754 75.4477C5.06038 74.8305 4.86228 74.1798 4.76322 73.5196C4.47771 71.5436 5.1536 69.6537 6.05674 67.8452C7.05894 65.8357 7.70571 63.7306 8.13106 61.5872C8.45153 59.9509 8.61467 58.2859 9.06333 56.6688C9.23231 56.0468 9.45373 55.4248 9.81498 54.8555C10.1005 54.4057 10.3743 53.9799 10.5666 53.4919C11.0561 52.2527 11.295 50.937 11.4814 49.65C11.8019 47.497 11.9709 45.3153 12 43.1479C12 42.8322 10.3161 43.0523 10.3102 43.5211V43.5163Z" fill="#1A1B23"/>
<path d="M10.0665 46.6244C10.3509 48.5189 10.5061 50.4373 10.6044 52.3509C10.7958 56.0496 10.7699 59.853 9.92681 63.4899C9.55439 65.1083 8.69577 66.5364 8.40611 68.193C8.08542 70.0161 8.03369 71.8869 8.00783 73.7339C7.9768 75.8522 8.03369 77.9705 8.25611 80.0793C8.70611 84.3397 9.76129 88.5572 10.7906 92.7224C11.701 96.4116 12.8751 100.163 13.1027 103.957C13.1803 105.237 12.9682 106.451 12.8027 107.712C12.6372 108.974 12.5596 110.212 12.5234 111.468C12.4303 115.043 12.7251 118.628 13.2061 122.174C13.7803 126.406 14.8355 130.585 15.2492 134.836C15.4251 136.655 15.601 138.816 14.3596 140.377C13.9354 140.91 13.2992 141.391 12.7251 141.805C12.001 142.324 9.65266 143.776 10.5268 144.895C11.1734 145.728 12.9216 145.894 13.9303 145.97C15.4561 146.08 17.0596 145.889 18.4717 145.333C19.8838 144.776 21.0838 143.771 21.3889 142.348C21.7148 140.834 21.4769 139.178 21.2958 137.659C20.8148 133.66 20.251 129.714 20.3855 125.678C20.4682 123.183 20.7113 120.698 20.8355 118.204C21.0269 114.424 20.9131 110.659 20.8148 106.875C20.7631 104.885 20.9131 102.886 21.1355 100.905C21.2596 99.7676 21.5079 98.6394 21.5907 97.497C21.7355 95.4263 21.6993 93.3413 21.6941 91.2706C21.6838 87.0768 21.6527 82.883 21.5234 78.694C21.5079 78.2513 21.4872 77.5325 22.2113 77.5087C22.9976 77.4849 23.4217 76.6186 22.3872 76.6519C21.001 76.6947 19.982 77.5087 20.0131 78.7988C20.0131 78.9606 20.0131 78.6798 20.0131 78.7797C20.0131 78.8321 20.0131 78.8892 20.0131 78.9416C20.0131 79.1748 20.0234 79.4128 20.0286 79.6461C20.07 81.712 20.1062 83.7732 20.132 85.8392C20.1682 88.4763 20.1941 91.1182 20.1786 93.7554C20.1682 95.4977 20.1682 97.2304 19.8993 98.9584C19.6096 100.824 19.4286 102.709 19.3458 104.594C19.2475 106.737 19.3924 108.869 19.4337 111.011C19.4958 114.21 19.4131 117.404 19.1906 120.598C19.0148 123.145 18.8131 125.687 18.8441 128.239C18.87 130.481 19.0975 132.713 19.3872 134.936C19.6251 136.778 19.9458 138.63 20.0027 140.491C20.0441 141.881 19.982 143.39 18.6372 144.276C17.5251 145.009 16.0044 145.19 14.6699 145.118C14.0337 145.085 13.4027 144.966 12.7923 144.795C12.451 144.699 11.8716 144.547 11.8613 144.142C11.8458 143.538 12.8751 142.891 13.2992 142.572C13.7234 142.253 14.2044 141.929 14.6337 141.581C15.9786 140.491 16.6872 139.149 16.8217 137.502C16.9303 136.236 16.8113 134.946 16.6561 133.684C16.4182 131.694 16.051 129.714 15.6734 127.743C14.3855 120.974 13.3458 113.839 14.3803 106.975C14.582 105.646 14.6648 104.366 14.5458 103.024C14.3906 101.305 14.0337 99.6057 13.6458 97.9206C12.6372 93.5364 11.4527 89.1904 10.563 84.7824C9.7406 80.7219 9.40956 76.6757 9.52853 72.5486C9.59577 70.1637 9.69922 67.7027 10.7078 65.4796C11.8923 62.8663 12.0734 59.8721 12.1665 57.0778C12.2699 53.9789 12.1044 50.8705 11.7578 47.7906C11.701 47.2813 11.6389 46.7672 11.5613 46.2578C11.4837 45.7485 9.97853 46.0579 10.0613 46.6291L10.0665 46.6244Z" fill="#1A1B23"/>
<path d="M21.9606 29.4164C21.5766 28.9848 21.2399 28.5244 20.6771 28.2702C20.1143 28.016 19.4673 27.9825 18.8308 28.0064L15.2381 28.1359L14.0703 28.1791C13.7652 28.1887 13.2497 28.2846 13.0551 28.5244C12.8605 28.7642 13.2287 28.8073 13.4286 28.7977C14.3333 28.7642 15.2328 28.7354 16.1376 28.7018L17.8839 28.6395C18.2522 28.6251 18.6204 28.5915 18.9781 28.6826C19.704 28.8649 20.088 29.4068 20.5351 29.9104C20.7876 30.1981 22.2394 29.7281 21.9659 29.4164H21.9606Z" fill="#1A1B23"/>
<path d="M22.2676 0.720069C24.3831 0.862096 26.749 2.08283 27.8221 3.84396C28.3791 4.75766 28.7215 5.77551 28.9105 6.81231C29.1609 8.18996 29.0485 9.52501 28.9974 10.9074C28.9361 12.536 28.7521 14.1361 28.2207 15.7032C27.8017 16.9482 26.9483 18.3739 26.003 19.3492C25.538 19.8321 25.4051 19.8794 25.3796 20.4759C25.308 21.8962 25.681 23.3307 26.6315 24.4669C28.4149 26.602 31.3838 26.6115 33.9899 27.118C35.7937 27.4684 37.9552 28.0081 38.5531 29.8355C39.0078 31.2273 38.8086 32.8275 38.7932 34.2667C38.7728 36.4207 38.7626 38.5795 38.7779 40.7336C38.7983 43.1197 38.8494 45.5057 38.9976 47.8823C39.1049 49.5961 39.1816 51.4045 39.7028 53.0615C39.8714 53.6012 40.1729 54.0936 40.3467 54.6333C40.6277 55.5186 40.7912 56.437 40.9394 57.3507C41.338 59.8551 41.5322 62.3879 41.6804 64.916C41.8285 67.444 41.9052 69.7969 41.895 72.2398C41.8848 74.8152 41.803 77.3859 42.1454 79.9471C42.1965 80.3211 42.2373 80.7093 42.3344 81.0738C42.4673 81.5567 42.5899 82.0207 42.5235 82.5272C42.4366 83.2516 42.0227 83.7629 41.5066 84.2789C40.6226 85.1689 39.6619 85.9879 38.6961 86.7975C38.5837 86.8922 38.456 86.9774 38.3538 87.0815C38.1954 87.2425 38.456 87.0437 38.3538 87.0957C38.2567 87.1431 38.1545 87.1904 38.1903 87.1715C38.1238 87.1999 38.0574 87.2236 37.991 87.2472C37.9552 87.2614 37.8734 87.323 37.9143 87.2756C37.9348 87.2567 37.8632 87.2662 37.9041 87.2756C38.0983 87.3372 38.0983 87.2804 38.134 87.233C38.2516 87.0721 38.2925 86.7501 38.41 86.5608C38.8086 85.8932 39.3604 85.3204 39.9328 84.776C40.7708 83.9759 41.8541 83.1285 41.7928 81.9023C41.7366 80.8892 41.0467 79.8003 39.8561 80.5625C39.2685 80.9365 39.3604 81.8786 39.3451 82.4562C39.3298 83.0338 39.3298 83.5972 39.3502 84.1653C39.3655 84.5393 40.8474 84.2836 40.8321 83.796C40.8066 83.19 40.8014 82.5793 40.8321 81.9733C40.8474 81.6041 40.919 81.249 40.9599 80.8797C40.9599 80.8371 41.0212 80.7614 41.011 80.7235C41.011 80.7235 39.8561 80.9365 39.8612 81.0028C39.8765 81.1969 40.1372 81.4952 40.2036 81.7035C40.6379 83.0669 39.4269 83.9617 38.5071 84.8375C37.9399 85.382 37.4187 85.9548 37.015 86.6128C36.8412 86.8922 36.5142 87.3656 36.7033 87.7017C37.061 88.3408 38.4458 87.7869 38.9312 87.5692C39.4729 87.3277 39.8663 86.9584 40.3058 86.5844C41.3022 85.7323 42.3242 84.8754 43.2031 83.9143C44.0821 82.9533 44.1434 81.8739 43.8214 80.7093C43.4024 79.1896 43.3973 77.5042 43.3564 75.9467C43.29 73.4233 43.3973 70.9047 43.3258 68.3814C43.2491 65.716 43.106 63.0554 42.8454 60.3995C42.641 58.3165 42.4571 56.1387 41.7877 54.1267C41.6088 53.5823 41.3022 53.0946 41.1438 52.5455C40.9292 51.8117 40.8219 51.0495 40.7299 50.2967C40.454 48.0906 40.3722 45.8655 40.316 43.6499C40.2087 39.6353 40.3058 35.6254 40.2904 31.6155C40.2904 29.9964 40.0043 28.4483 38.41 27.5346C37.4493 26.9807 36.3302 26.7061 35.2418 26.4742C33.6577 26.1428 31.9663 26.1096 30.4435 25.5652C28.512 24.874 27.2549 23.3733 26.9381 21.489C26.8512 20.9778 26.8359 20.4617 26.8768 19.9457C26.8819 19.8557 26.9636 19.6569 26.8768 19.7895C27.0301 19.5575 27.3418 19.3587 27.5308 19.1456C27.7761 18.8758 27.9959 18.587 28.2003 18.2935C29.5084 16.3666 30.2953 13.8284 30.4435 11.5749C30.5713 9.63389 30.7297 7.66446 30.2494 5.75184C29.5084 2.8119 26.9688 0.691664 23.7341 0.0809509C23.5553 0.0478115 23.3713 0.014672 23.1874 0.00520357C22.845 -0.0184675 22.4056 0.0336088 22.1398 0.265585C21.9457 0.436017 21.9252 0.672727 22.2625 0.696398L22.2676 0.720069Z" fill="#1A1B23"/>
<path d="M33 43.5659C33.0258 45.3718 33.1445 47.1823 33.3354 48.9787C33.4799 50.3295 33.6656 51.6851 34.0164 53.0074C34.1558 53.5383 34.3209 54.0644 34.5634 54.5621C34.8059 55.0597 35.1206 55.51 35.3167 56.0314C35.843 57.458 35.9823 59.0032 36.2093 60.4867C36.5137 62.4821 36.9058 64.4681 37.5921 66.3876C38.3092 68.4068 39.4134 70.2884 39.4753 72.4639C39.5114 73.8005 39.1915 75.0897 38.5105 76.2699C37.7365 77.616 37.4631 79.1801 37.3392 80.6826C37.1999 82.3083 37.1741 84.1805 37.9377 85.6925C38.2473 86.3039 39.7281 85.9105 39.434 85.3228C38.753 83.972 38.7375 82.3605 38.8355 80.9054C38.9232 79.5403 39.0935 78.0189 39.7539 76.7723C40.3473 75.6633 40.8375 74.5968 40.9613 73.3455C41.1522 71.4402 40.6156 69.5775 39.8262 67.8333C38.9387 65.8615 38.3557 63.8092 37.9739 61.7048C37.6746 60.0696 37.5301 58.406 37.1483 56.7803C36.9987 56.1499 36.8078 55.529 36.5034 54.946C36.266 54.491 35.9977 54.0834 35.8223 53.6046C35.3837 52.4102 35.1722 51.1447 35.0019 49.8982C34.7078 47.7701 34.5582 45.6135 34.5273 43.4664C34.5169 42.7365 33 42.9356 33.0103 43.5659H33Z" fill="#1A1B23"/>
<path d="M33.4468 46.4218C33.168 48.2694 33.0131 50.1409 32.9099 52.0029C32.7085 55.6361 32.7188 59.3552 33.4468 62.9407C33.6379 63.8717 33.8857 64.7501 34.2781 65.619C34.6086 66.3495 34.8616 67.0847 35.0217 67.8582C35.3573 69.5005 35.4244 71.1906 35.4709 72.8568C35.5277 75.0147 35.507 77.1775 35.316 79.3307C34.9339 83.6084 33.9012 87.8431 32.884 92.0158C31.9753 95.735 30.8394 99.4684 30.4676 103.273C30.2198 105.818 30.8445 108.315 30.9581 110.855C31.1079 114.23 30.8755 117.62 30.4728 120.972C29.9461 125.345 28.9134 129.646 28.3713 134.015C28.1286 135.987 27.7878 138.374 28.8463 140.207C29.2078 140.832 29.7344 141.362 30.3075 141.826C30.7619 142.193 31.2576 142.518 31.7223 142.881C32.2128 143.263 33.0751 143.845 33.137 144.499C33.2197 145.354 31.2834 145.392 30.6793 145.401C29.2181 145.435 27.6123 145.144 26.4402 144.303C25.1287 143.368 24.979 141.945 25.0048 140.513C25.0409 138.646 25.3507 136.784 25.5934 134.932C26.0633 131.327 26.2647 127.741 26.0684 124.118C25.929 121.564 25.6967 119.009 25.6141 116.45C25.5521 114.66 25.5469 112.875 25.5779 111.084C25.6141 108.936 25.769 106.783 25.6812 104.634C25.6037 102.701 25.423 100.762 25.1339 98.843C25.0255 98.1125 24.9274 97.4059 24.8964 96.6659C24.8034 94.3886 24.8241 92.1065 24.8396 89.8292C24.8602 86.0289 24.9532 82.2334 25.0048 78.4331C25.0203 77.3828 24.3594 76.7573 23.208 76.7191C22.8775 76.7096 22.4076 76.7764 22.1495 76.9817C21.9584 77.1345 21.912 77.3016 22.2424 77.3112C23.874 77.3637 23.4971 79.2829 23.4765 80.3142C23.43 82.6153 23.3938 84.9165 23.368 87.2177C23.337 89.8149 23.3164 92.4169 23.3525 95.0188C23.3629 95.9116 23.3784 96.8044 23.4351 97.6972C23.5074 98.7714 23.7398 99.836 23.8637 100.91C24.0909 102.901 24.2458 104.906 24.2148 106.907C24.1838 109.074 24.0651 111.242 24.0651 113.409C24.0651 116.36 24.2251 119.296 24.4317 122.237C24.6382 125.178 24.7776 128.3 24.5349 131.341C24.3645 133.504 24.0393 135.648 23.7708 137.801C23.5746 139.367 23.3319 141.028 23.6107 142.599C24.1322 145.554 28.1028 146.213 30.7826 145.946C31.4796 145.874 32.1715 145.731 32.8427 145.54C33.3952 145.378 34.0664 145.172 34.4434 144.733C35.3211 143.716 33.0957 142.365 32.44 141.888C31.0665 140.895 30.0597 139.83 29.7757 138.197C29.5795 137.07 29.6415 135.91 29.7447 134.779C29.9203 132.845 30.2611 130.921 30.6122 129.007C31.9133 121.95 33.1267 114.651 32.2025 107.484C32.0424 106.229 31.8359 105.016 31.903 103.746C31.9908 102.018 32.3316 100.304 32.7085 98.6091C33.6895 94.1881 34.8926 89.8149 35.8116 85.3844C36.6326 81.4122 37.056 77.4544 36.994 73.4058C36.9527 70.7514 36.9682 67.8964 35.8529 65.3994C34.7377 62.9025 34.4795 60.0809 34.3607 57.3787C34.2213 54.1799 34.3814 50.9717 34.7325 47.7872C34.7893 47.2525 34.8513 46.713 34.9339 46.1783C34.9907 45.8155 33.5088 46.0637 33.4572 46.4123L33.4468 46.4218Z" fill="#1A1B23"/>
<path d="M24.4493 29.6492C24.7176 29.3432 25.0438 28.814 25.4543 28.6634C25.6858 28.5809 26.0225 28.6343 26.2645 28.644L29.7268 28.7703L30.7686 28.8091C31.1264 28.8237 31.5526 28.746 31.8473 28.542C32.0683 28.3915 32.063 28.1973 31.742 28.1827C30.7423 28.1487 29.7373 28.1099 28.7376 28.0759C27.4958 28.0322 26.1646 27.8574 24.9754 28.2555C24.4545 28.4303 23.9704 28.6974 23.6126 29.0907C23.4232 29.2995 23.2443 29.5083 23.0602 29.722C22.8497 29.9648 23.2443 30.0085 23.4337 29.9988C23.7389 29.9842 24.2388 29.8871 24.4493 29.6492Z" fill="#1A1B23"/>
</svg>
