<svg width="41" height="40" viewBox="0 0 41 40" fill="none" xmlns="http://www.w3.org/2000/svg">
<path d="M20.6875 5C28.9718 5 35.6875 11.7157 35.6875 20C35.6875 28.2843 28.9718 35 20.6875 35C12.4032 35 5.6875 28.2843 5.6875 20C5.6875 11.7157 12.4032 5 20.6875 5ZM28.3145 13.8477C27.718 13.3507 26.8498 13.3953 26.3066 13.9268L26.2021 14.04L19.2705 22.3574L18.9209 22.7725L18.5332 22.3906L15.082 18.9395C14.4964 18.3538 13.5468 18.354 12.9609 18.9395C12.3752 19.5252 12.3752 20.4748 12.9609 21.0605L16.4121 24.5117L16.9219 25.0137C17.0946 25.1773 17.2682 25.332 17.4375 25.46C17.7639 25.7067 18.2204 25.9719 18.8076 26.0127L19.0674 26.0156L19.3252 25.9893C19.9064 25.8955 20.3369 25.5898 20.6396 25.3145C20.7965 25.1717 20.9562 25.0027 21.1133 24.8242L21.5752 24.2773L28.5068 15.96L28.5986 15.8379C29.0241 15.2077 28.911 14.345 28.3145 13.8477Z" fill="#B982FF"/>
</svg>
