<svg width="35" height="34" viewBox="0 0 35 34" fill="none" xmlns="http://www.w3.org/2000/svg">
<circle cx="17.1875" cy="17" r="16" stroke="#B982FF" stroke-width="2"/>
<path d="M16.8391 14.014C17.698 15.3468 18.8407 16.4805 20.1887 17.3314L14.7102 22.8099C14.2852 23.2349 14.0728 23.4475 13.8117 23.5872C13.5506 23.727 13.2557 23.7867 12.6662 23.9046L10.4231 24.3528C10.0905 24.4194 9.92393 24.4523 9.82932 24.3577C9.73503 24.2631 9.76779 24.097 9.8342 23.765L10.2834 21.5208C10.4013 20.9314 10.4601 20.6364 10.5998 20.3753C10.7396 20.1143 10.9522 19.9018 11.3772 19.4769L16.8391 14.014ZM20.1516 10.7308C20.8638 10.1947 21.8446 10.1947 22.5569 10.7308C22.669 10.8152 22.7865 10.9321 23.0207 11.1663C23.2551 11.4007 23.3728 11.518 23.4573 11.6302C23.9933 12.3424 23.9933 13.3242 23.4573 14.0364C23.3728 14.1486 23.2551 14.2659 23.0207 14.5003L21.6467 15.8733C20.2475 15.0872 19.091 13.9394 18.2942 12.5589L19.6877 11.1663C19.922 10.932 20.0394 10.8152 20.1516 10.7308Z" fill="#B982FF"/>
</svg>
