<svg width="133" height="189" viewBox="0 0 133 189" fill="none" xmlns="http://www.w3.org/2000/svg">
<path d="M32.3246 1.20684C34.5523 4.32429 35.8048 8.35555 36.2877 12.106C36.7705 15.8517 36.3928 19.6593 35.1547 23.2289C34.0599 26.3892 32.1668 29.0735 30.5892 31.9863C27.8978 36.9599 25.8469 42.2763 24.0972 47.6402C21.9411 54.2368 20.2823 61 19.0871 67.8346C16.5534 82.3224 15.8602 97.7954 19.9763 112.064C21.0233 115.686 22.4479 119.194 23.8916 122.673C25.4501 126.433 27.1042 130.155 28.8204 133.848C32.1668 141.045 35.7379 148.136 39.3472 155.204C42.5311 161.439 45.7819 167.645 48.8032 173.966C50.7202 177.973 52.8572 182.166 53.7989 186.536C53.9328 187.164 54.0332 187.806 54.038 188.454C54.0428 189.101 56.5621 188.887 56.5573 188.106C56.5478 186.574 56.0697 185.046 55.5821 183.604C54.8507 181.433 53.9423 179.32 53.0053 177.231C50.3521 171.343 47.3738 165.604 44.4338 159.859C37.1625 145.652 29.7431 131.426 24.0924 116.476C18.8386 102.564 18.8099 87.1247 20.8129 72.5703C21.8025 65.393 23.3419 58.2871 25.3975 51.3383C27.0994 45.5841 29.1311 39.887 31.7509 34.4755C32.8217 32.2623 34.0838 30.192 35.3363 28.0788C37.4589 24.4854 38.764 20.4303 38.9839 16.261C39.2564 11.1018 37.8844 5.7902 35.2073 1.35914C35.0543 1.10213 34.8965 0.845116 34.7196 0.602384C34.2989 0.0169696 31.8895 0.592865 32.3293 1.20208L32.3246 1.20684Z" fill="#1A1B23"/>
<path d="M118.566 77.7151C116.424 77.2772 114.201 77.1296 112.021 77.1296C107.532 77.1249 102.962 77.815 98.8317 79.6093C90.3844 83.2836 85.1545 91.3795 78.6529 97.4906C77.3621 98.7043 75.9805 99.8704 74.4268 100.741C73.8292 101.079 73.1887 101.374 72.5194 101.546C71.917 101.703 71.6589 101.793 71.1235 101.484C69.6032 100.594 69.0917 98.7804 68.236 97.3526C64.6218 91.3176 59.7074 85.592 53.6552 81.8939C48.9654 79.0287 43.4487 77.182 38.0609 76.1682C32.7641 75.1687 27.2903 75.1735 22.003 76.2491C20.6788 76.5204 19.3689 76.8679 18.0733 77.2581C17.5762 77.4057 17.6622 77.7769 18.0542 77.9721C18.5753 78.2338 19.3115 78.1815 19.8517 78.0149C24.8665 76.5061 30.13 76.0635 35.3217 76.787C38.0753 77.1725 40.7954 77.8531 43.42 78.7621C45.9967 79.6522 48.5974 80.6802 50.9542 82.0557C57.0972 85.6443 62.0116 91.3509 65.664 97.3764C66.4719 98.7138 66.9882 100.208 68.1356 101.317C70.7745 103.868 74.9431 102.474 77.5916 100.699C80.8949 98.4806 83.5816 95.3679 86.2588 92.4646C89.304 89.1616 92.354 85.7776 95.9825 83.0885C99.7065 80.328 104.081 78.7717 108.684 78.31C111.567 78.0197 114.321 78.0768 117.07 78.5289C117.184 78.548 117.294 78.5718 117.409 78.586C117.653 78.6193 117.122 78.5289 117.256 78.5575C117.758 78.6622 118.561 78.7716 119.001 78.4194C119.417 78.0863 118.915 77.7864 118.561 77.7151H118.566Z" fill="#1A1B23"/>
<path d="M82.7598 188.158C82.8602 187.368 82.8793 186.559 82.908 185.764C82.9988 183.094 82.9415 180.42 82.8411 177.754C82.6499 172.747 82.2674 167.75 81.7989 162.762C81.0675 155.023 80.1114 147.308 79.0309 139.607C77.4916 128.641 75.6989 117.714 73.758 106.81C73.4759 105.229 73.1891 103.649 72.9022 102.069C72.7684 101.331 70.249 101.65 70.3733 102.321C72.4385 113.644 74.3507 124.991 76.0096 136.38C77.1809 144.443 78.2278 152.524 79.0405 160.63C79.5712 165.932 80.0157 171.243 80.2548 176.569C80.3886 179.496 80.4699 182.433 80.3982 185.36C80.3791 186.078 80.3552 186.792 80.3073 187.511C80.293 187.754 80.1783 188.144 80.2357 188.382C80.2357 188.392 80.2357 188.406 80.2357 188.415C80.1639 189.001 82.6642 188.968 82.7646 188.163L82.7598 188.158Z" fill="#1A1B23"/>
<path d="M95.3229 188.454C97.3738 183.461 99.2047 178.368 100.988 173.271C105.166 161.339 108.861 149.226 111.935 136.966C115.597 122.359 118.475 107.447 119.379 92.398C119.756 86.1108 119.752 79.8759 119.02 73.6219C118.595 69.9952 118.169 66.3637 117.945 62.7228C117.763 59.7766 117.839 56.821 117.787 53.8702C117.663 46.4597 117.012 39.0682 115.631 31.7815C114.718 26.9744 113.398 22.3101 112.064 17.6078C110.931 13.6098 110.21 9.39772 110.463 5.22843C110.554 3.77679 110.769 2.33467 111.19 0.940147C111.352 0.397568 108.885 0.0786839 108.646 0.863996C106.208 8.88369 109.641 17.1318 111.577 24.8422C113.561 32.7572 114.713 40.853 115.095 49.0012C115.239 51.9997 115.272 55.0029 115.277 58.0061C115.277 61.4139 115.526 64.7931 115.875 68.1819C116.195 71.2898 116.63 74.3882 116.917 77.5009C117.208 80.6231 117.137 83.8119 117.065 86.9484C116.706 101.903 114.134 116.776 110.74 131.316C107.738 144.186 104 156.889 99.7497 169.406C97.6415 175.608 95.4089 181.766 92.9804 187.849C92.9469 187.935 92.9087 188.02 92.8752 188.106C92.5693 188.849 95.0552 189.087 95.3181 188.449L95.3229 188.454Z" fill="#1A1B23"/>
<path d="M123.858 0.673551C124.384 3.8148 124.843 6.96556 125.278 10.1211C126.186 16.7225 126.966 23.3476 127.444 29.9966C127.678 33.2949 127.845 36.6027 127.821 39.9106C127.802 42.4283 127.573 44.9223 127.353 47.4258C126.841 53.3085 126.469 59.2054 126.182 65.1024C125.857 71.8228 125.637 78.5527 125.689 85.2778C125.728 90.2324 125.704 95.3917 126.755 100.261C126.908 100.965 127.09 101.679 127.377 102.34C127.764 103.24 128.424 103.968 128.821 104.863C130.307 108.214 130.04 112.188 129.15 115.657C128.256 119.141 126.593 122.421 123.777 124.743C122.577 125.733 121.196 126.39 119.656 126.657C118.858 126.795 118.04 126.842 117.228 126.871C116.764 126.885 116.305 126.895 115.841 126.895C115.612 126.895 115.387 126.895 115.158 126.895C114.986 126.895 114.412 126.79 114.809 126.928C114.809 126.928 115.335 127.113 115.33 127.118C115.306 127.128 115.244 127.047 115.234 127.023C115.177 126.871 115.067 126.785 115.057 126.595C115.038 126.152 115.421 125.905 115.794 125.767C116.649 125.457 117.62 125.629 118.504 125.462C119.312 125.31 120.086 125 120.751 124.51C122.744 123.03 123.538 120.169 123.079 117.799C122.649 115.591 121.851 113.34 120.727 111.383C120.249 110.551 119.675 109.77 118.82 109.289C117.964 108.809 116.554 108.456 115.77 109.28C114.885 110.208 114.656 111.759 114.441 112.959C114.302 113.716 116.754 114.358 116.869 113.706C117.06 112.635 117.256 110.869 118.179 110.117C118.38 109.956 118.423 110.056 118.217 110.013C117.95 109.951 117.701 109.903 117.438 109.808C117.405 109.794 117.328 109.718 117.4 109.789C117.596 109.994 117.907 110.327 118.136 110.674C119.36 112.521 120.106 114.839 120.579 116.985C121.086 119.275 120.459 122.13 118.413 123.591C117.672 124.12 116.817 124.343 115.913 124.372C115.072 124.396 114.192 124.424 113.427 124.819C112.504 125.291 112.399 126.219 113.064 126.975C114.168 128.237 115.937 128.127 117.452 128.118C119.116 128.103 120.804 128.051 122.419 127.618C125.642 126.757 128.17 124.086 129.719 121.236C131.464 118.028 132.353 114.249 132.282 110.608C132.248 108.87 131.995 107.119 131.316 105.51C131.005 104.773 130.594 104.101 130.14 103.445C129.968 103.197 129.958 103.188 129.82 102.869C129.146 101.351 128.926 99.6038 128.725 97.9665C128.409 95.4059 128.276 92.8263 128.194 90.2514C127.984 83.6929 128.147 77.1201 128.4 70.5663C128.648 64.2457 129.007 57.9347 129.495 51.6284C129.676 49.2724 129.93 46.9213 130.102 44.5606C130.317 41.5716 130.269 38.5636 130.15 35.5699C129.872 28.683 129.141 21.8151 128.276 14.9805C127.716 10.578 127.095 6.18025 126.382 1.80154C126.344 1.57785 126.311 1.35891 126.273 1.13522C126.153 0.430818 123.724 -0.0784447 123.849 0.673551H123.858Z" fill="#1A1B23"/>
<path d="M19.8997 0.916537C20.3347 6.21382 20.1148 11.6491 19.436 16.9083C18.8862 21.1728 17.9731 25.4754 16.1852 29.4114C16.0131 29.7922 15.8123 30.1539 15.6402 30.5394C14.665 32.7145 14.0961 35.0942 13.5894 37.4121C12.3607 43.0568 11.7249 48.8301 11.2755 54.5843C10.9218 59.1248 10.7114 63.6796 10.5919 68.2296C10.4437 73.803 10.6302 79.3906 10.2238 84.9544C9.65971 92.6219 8.1108 100.351 4.85522 107.362C4.18116 108.814 3.36368 110.199 2.73743 111.674C1.80044 113.878 1.26023 116.2 1.06901 118.585C0.877788 120.969 0.906471 123.549 0.949497 126.019C0.97818 127.656 0.987737 129.484 1.78131 130.974C2.44581 132.221 3.6553 132.749 4.86001 133.353C6.23681 134.044 7.59928 134.757 8.98565 135.424C10.5489 136.176 12.136 136.904 13.7901 137.437C15.2195 137.894 16.821 138.289 18.3173 137.937C19.0966 137.751 20.0431 137.213 19.6224 136.3C19.2448 135.481 18.2839 134.872 17.5668 134.372C15.0952 132.644 12.3846 131.264 9.99435 129.417C9.13384 128.751 8.12036 127.951 7.69489 126.914C7.45108 126.319 7.56581 125.634 7.67576 125.02C7.88133 123.858 8.2829 122.74 8.74184 121.655C9.18165 120.622 9.67882 119.608 10.2142 118.623C10.3099 118.447 10.4055 118.271 10.5011 118.099C10.5011 118.099 10.6875 117.814 10.6828 117.776L10.09 117.728C9.5641 117.523 9.38243 117.538 9.54976 117.766C9.53541 117.947 9.69317 118.328 9.73142 118.528C9.98957 119.975 10.133 121.44 10.2382 122.906C10.4103 125.286 10.4581 127.675 10.4628 130.06C10.4628 130.774 13.0061 130.769 13.0061 130.041C13.0061 126.19 12.9487 122.259 12.2651 118.456C12.136 117.733 11.9926 117.195 11.2182 116.928C10.2955 116.61 8.84701 116.657 8.2351 117.523C7.62318 118.39 7.22162 119.375 6.79137 120.289C6.30375 121.326 5.86392 122.388 5.5245 123.482C5.10381 124.829 4.67834 126.352 5.48148 127.633C6.15076 128.694 7.2264 129.527 8.22554 130.26C10.6158 132.021 13.2882 133.372 15.688 135.119C16.1709 135.471 17.2178 136.157 17.2035 136.766C17.2035 136.928 17.1891 136.837 17.1031 137.013C17.0505 137.113 16.9644 137.137 17.1509 137.047C17.0505 137.094 17.1652 137.056 17.1365 137.051C17.2656 137.071 16.8832 137.023 16.8354 137.018C16.9644 137.037 16.6633 136.985 16.625 136.98C16.4147 136.937 16.2043 136.885 15.9988 136.828C12.8962 135.981 9.99435 134.315 7.14034 132.868C6.01212 132.297 4.85522 131.864 4.22897 130.683C3.42105 129.165 3.50232 127.19 3.4832 125.524C3.43061 120.484 3.41627 115.51 5.66793 110.87C6.92044 108.29 8.19207 105.782 9.14819 103.064C10.4342 99.3994 11.352 95.6204 11.9687 91.789C12.8101 86.5393 12.9822 81.2753 13.0109 75.9685C13.0396 70.6617 13.1591 65.6548 13.4316 60.505C13.7853 53.7847 14.3495 47.0453 15.535 40.4106C16.0657 37.4407 16.7063 34.347 17.758 31.6008C17.9349 31.1439 18.1261 30.6965 18.346 30.2586C19.479 28.0026 20.2439 25.542 20.8415 23.0956C22.5003 16.2944 22.8637 9.11709 22.5147 2.14448C22.4956 1.72564 22.4717 1.31157 22.4382 0.897499C22.376 0.150263 19.8376 0.231174 19.8949 0.916537H19.8997Z" fill="#1A1B23"/>
<path d="M17.5097 97.7334C17.8252 101.922 17.8873 106.167 17.6005 110.36C17.4284 112.849 17.218 115.553 16.1807 117.856C15.5592 119.237 14.9951 120.545 14.6604 122.03C14.3067 123.615 14.1059 125.238 13.9912 126.861C13.8334 129.07 13.7999 131.316 13.9481 133.529C13.9959 134.21 16.4292 134.795 16.3719 133.991C16.2428 132.13 16.2715 130.245 16.3719 128.384C16.544 125.215 16.9456 121.897 18.3988 119.027C19.5127 116.838 19.7756 114.249 19.9716 111.84C20.2107 108.947 20.225 106.039 20.1533 103.14C20.1103 101.493 20.0529 99.8466 19.9286 98.1998C19.876 97.5192 17.4427 96.9385 17.5049 97.7381L17.5097 97.7334Z" fill="#1A1B23"/>
<path d="M22.4956 53.9747C24.2501 55.1456 26.5257 55.7262 28.5287 56.2688C35.4654 58.1535 42.7366 58.877 49.8884 59.3767C63.0541 60.3001 76.3489 60.2239 89.5194 59.4672C96.9771 59.0388 104.588 58.4439 111.845 56.5687C113.284 56.1974 114.727 55.7738 116.08 55.1503C116.515 54.9504 117.247 54.7029 117.558 54.3079C117.567 54.2936 117.586 54.2841 117.596 54.2746C118.102 53.7748 115.817 52.8896 115.282 53.4179C115.229 53.4702 115.167 53.5178 115.105 53.5559C115.019 53.613 114.933 53.6654 114.852 53.7225C114.799 53.7558 114.742 53.7844 114.689 53.8177C114.79 53.7606 114.747 53.7891 114.598 53.8653C113.547 54.3983 112.433 54.7934 111.304 55.1313C105.276 56.9399 98.6551 57.5539 92.3065 58.0393C79.5232 59.0198 66.6013 59.1197 53.7989 58.5057C49.0279 58.2773 44.2569 57.9108 39.5193 57.3016C37.8031 57.0779 36.0916 56.8257 34.385 56.5211C34.0169 56.4544 33.6487 56.3878 33.2806 56.3164C33.032 56.2688 32.8647 56.2355 32.4153 56.1451C31.7843 56.0166 31.1485 55.8738 30.5222 55.7262C29.5374 55.493 28.5574 55.2312 27.587 54.9457C27.3527 54.8743 27.4196 54.8933 27.5439 54.9314C27.4483 54.9028 27.3527 54.8695 27.2571 54.841C27.0802 54.7838 26.9033 54.7267 26.7265 54.6649C26.4157 54.5602 26.105 54.4459 25.799 54.3317C25.56 54.2413 25.3258 54.1413 25.0915 54.0461C24.7712 53.9176 25.3879 54.1889 25.0724 54.0366C24.9863 53.9938 24.8955 53.9557 24.8095 53.9129C24.623 53.8224 24.4414 53.713 24.2549 53.6225C24.1545 53.5749 24.5609 53.8177 24.4174 53.7177C23.9442 53.3988 23.251 53.1752 22.6725 53.2799C22.2232 53.3608 22.0558 53.6797 22.4956 53.9747Z" fill="#1A1B23"/>
<path opacity="0.3" d="M70.0337 119.912C103.042 119.912 129.8 93.2721 129.8 60.4096C129.8 27.5471 103.042 0.906738 70.0337 0.906738C37.0254 0.906738 10.2668 27.5471 10.2668 60.4096C10.2668 93.2721 37.0254 119.912 70.0337 119.912Z" fill="#B982FF"/>
</svg>
